<svg width="26" height="26" viewBox="0 0 26 26" fill="none" xmlns="http://www.w3.org/2000/svg">
<rect width="26" height="26" fill="#E5E5E5"/>
<g clip-path="url(#clip0_891_3857)">
<rect width="1280" height="1903" transform="translate(-1181 -24)" fill="#202020"/>
<rect x="-1181" y="-24" width="1280" height="74" fill="#202020"/>
<g filter="url(#filter0_d_891_3857)">
<rect x="-71" y="-3" width="100" height="32" rx="16" fill="#202020"/>
</g>
<rect width="26" height="26" rx="13" fill="#313131"/>
<path fill-rule="evenodd" clip-rule="evenodd" d="M14.4299 14.9678C15.7917 14.4057 16.7501 13.0648 16.7501 11.5C16.7501 9.42893 15.0712 7.75 13.0001 7.75C10.929 7.75 9.2501 9.42893 9.2501 11.5C9.2501 13.0647 10.2085 14.4056 11.5702 14.9677C10.1756 15.1999 8.89263 15.7659 7.80835 16.5806L9.1899 18.4194C10.2512 17.6221 11.5687 17.15 12.9999 17.15C14.431 17.15 15.7485 17.6221 16.8098 18.4194L18.1914 16.5806C17.1072 15.766 15.8244 15.2 14.4299 14.9678Z" fill="white"/>
</g>
<defs>
<filter id="filter0_d_891_3857" x="-85" y="-14" width="128" height="60" filterUnits="userSpaceOnUse" color-interpolation-filters="sRGB">
<feFlood flood-opacity="0" result="BackgroundImageFix"/>
<feColorMatrix in="SourceAlpha" type="matrix" values="0 0 0 0 0 0 0 0 0 0 0 0 0 0 0 0 0 0 127 0" result="hardAlpha"/>
<feOffset dy="3"/>
<feGaussianBlur stdDeviation="7"/>
<feColorMatrix type="matrix" values="0 0 0 0 0 0 0 0 0 0 0 0 0 0 0 0 0 0 0.08 0"/>
<feBlend mode="normal" in2="BackgroundImageFix" result="effect1_dropShadow_891_3857"/>
<feBlend mode="normal" in="SourceGraphic" in2="effect1_dropShadow_891_3857" result="shape"/>
</filter>
<clipPath id="clip0_891_3857">
<rect width="1280" height="1903" fill="white" transform="translate(-1181 -24)"/>
</clipPath>
</defs>
</svg>
